<?xml version="1.0" encoding="utf-8"?>
<!-- Generator: Adobe Illustrator 23.0.2, SVG Export Plug-In . SVG Version: 6.00 Build 0)  -->
<svg version="1.1" id="Capa_1" xmlns="http://www.w3.org/2000/svg" xmlns:xlink="http://www.w3.org/1999/xlink" x="0px" y="0px"
	 viewBox="0 0 439.2 439.2" style="enable-background:new 0 0 439.2 439.2;" xml:space="preserve">
<style type="text/css">
	.st0{fill:#765E9D;}
</style>
<g>
	<g>
		<path class="st0" d="M362.09,151.4c-5.34,0-8.91,3.56-8.91,8.91v17.81h-14.25L371,10.69c0-1.78,0-5.34-1.78-7.12
			S363.88,0,362.09,0H77.11c-1.78,0-5.34,1.78-7.12,3.56s-1.78,3.56-1.78,7.12l32.06,167.43H86.01v-17.81
			c0-5.34-3.56-8.91-8.91-8.91c-5.34,0-8.91,3.56-8.91,8.91v53.44c0,5.34,3.56,8.91,8.91,8.91c5.34,0,8.91-3.56,8.91-8.91v-17.81
			h17.81l17.81,94.4l-14.25,14.25c-3.56,3.56-3.56,7.12-1.78,10.69l17.81,35.62c0,3.56,3.56,5.34,7.12,5.34h178.12
			c3.56,0,7.12-1.78,7.12-5.34l17.81-35.62c1.78-3.56,1.78-7.12-1.78-10.69l-14.25-14.25l17.81-94.4h17.81v17.81
			c0,5.34,3.56,8.91,8.91,8.91s8.91-3.56,8.91-8.91v-53.44C371,154.96,367.44,151.4,362.09,151.4z M299.75,292.11
			c0,3.56,0,5.34,1.78,7.12L314,311.71l-10.69,26.72H135.88l-12.47-24.94l12.47-12.47c3.56-3.56,3.56-5.34,3.56-8.91L87.79,17.81
			h33.84v17.81c0,5.34,3.56,8.91,8.91,8.91c5.34,0,8.91-3.56,8.91-8.91V17.81h17.81v17.81c0,5.34,3.56,8.91,8.91,8.91
			c5.34,0,8.91-3.56,8.91-8.91V17.81h17.81v17.81c0,5.34,3.56,8.91,8.91,8.91c5.34,0,8.91-3.56,8.91-8.91V17.81h17.81v17.81
			c0,5.34,3.56,8.91,8.91,8.91c5.34,0,8.91-3.56,8.91-8.91V17.81h17.81v17.81c0,5.34,3.56,8.91,8.91,8.91s8.91-3.56,8.91-8.91V17.81
			h17.81v17.81c0,5.34,3.56,8.91,8.91,8.91s8.91-3.56,8.91-8.91V17.81h33.84L299.75,292.11z"/>
		<path class="st0" d="M439.2,366H4.75c0,0,0.39,18.19,0.39,18.45v45.12c0,6.23,5.95,11.04,11.92,9.24c3.63-1.09,5.9-4.22,5.9-8.48
			v-45.88c0-0.35,0.29-0.64,0.64-0.64h133.03c0.35,0,0.64,0.29,0.64,0.64v16.41c0,6.23,5.95,11.04,11.92,9.24
			c3.63-1.09,5.9-4.22,5.9-8.48v-17.17c0-0.35,0.29-0.64,0.64-0.64h16.53c0.35,0,0.64,0.29,0.64,0.64v16.41
			c0,6.23,5.95,11.04,11.92,9.24c3.63-1.09,5.9-4.22,5.9-8.48v-17.17c0-0.35,0.29-0.64,0.64-0.64h16.53c0.35,0,0.64,0.29,0.64,0.64
			v16.41c0,6.23,5.95,11.04,11.92,9.24c3.63-1.09,5.9-4.22,5.9-8.48v-17.17c0-0.35,0.29-0.64,0.64-0.64h16.53
			c0.35,0,0.64,0.29,0.64,0.64v16.41c0,6.23,5.95,11.04,11.92,9.24c3.63-1.09,5.9-4.22,5.9-8.48v-17.17c0-0.35,0.29-0.64,0.64-0.64
			h137.73c0.35,0,0.64,0.29,0.64,0.64v45.12c0,6.23,5.95,11.04,11.92,9.24c3.63-1.09,5.9-4.22,5.9-8.48v-45.88
			C438.76,384.17,439.2,366,439.2,366z"/>
		<path class="st0" d="M208.91,208.4c3.56,0,7.12-1.78,8.91-5.34c1.78-5.34,0-8.91-5.34-10.69l-67.68-23.16
			c-5.34-1.78-8.91,0-10.69,5.34c-1.78,5.34,0,8.91,5.34,10.69l67.68,23.16C207.13,206.62,207.13,208.4,208.91,208.4z"/>
		<path class="st0" d="M292.63,165.65l-64.12,26.72c-5.34,1.78-7.12,7.12-5.34,12.47c1.78,3.56,5.34,5.34,8.91,5.34
			c1.78,0,1.78,0,3.56,0l65.9-28.5c5.34-1.78,7.12-7.12,5.34-12.47C303.32,165.65,297.97,163.87,292.63,165.65z"/>
		<path class="st0" d="M299.75,89.06h-17.81c0-5.34-3.56-8.91-8.91-8.91s-8.91,3.56-8.91,8.91h-17.81c0-5.34-3.56-8.91-8.91-8.91
			s-8.91,3.56-8.91,8.91h-17.81c0-5.34-3.56-8.91-8.91-8.91c-5.34,0-8.91,3.56-8.91,8.91h-17.81c0-5.34-3.56-8.91-8.91-8.91
			c-5.34,0-8.91,3.56-8.91,8.91h-17.81c-5.34,0-8.91,3.56-8.91,8.91s3.56,8.91,8.91,8.91h17.81c0,5.34,3.56,8.91,8.91,8.91
			c5.34,0,8.91-3.56,8.91-8.91h17.81c0,5.34,3.56,8.91,8.91,8.91c5.34,0,8.91-3.56,8.91-8.91h17.81c0,5.34,3.56,8.91,8.91,8.91
			c5.34,0,8.91-3.56,8.91-8.91h17.81c0,5.34,3.56,8.91,8.91,8.91s8.91-3.56,8.91-8.91h17.81c5.34,0,8.91-3.56,8.91-8.91
			S305.1,89.06,299.75,89.06z"/>
		<path class="st0" d="M264.13,284.99h-89.06c-5.34,0-8.91,3.56-8.91,8.91s3.56,8.91,8.91,8.91h89.06c5.34,0,8.91-3.56,8.91-8.91
			S269.47,284.99,264.13,284.99z"/>
		<path class="st0" d="M175.07,213.74c-5.34,0-8.91,3.56-8.91,8.91s3.56,8.91,8.91,8.91h17.81c5.34,0,8.91-3.56,8.91-8.91
			s-3.56-8.91-8.91-8.91H175.07z"/>
		<path class="st0" d="M264.13,213.74h-17.81c-5.34,0-8.91,3.56-8.91,8.91s3.56,8.91,8.91,8.91h17.81c5.34,0,8.91-3.56,8.91-8.91
			S269.47,213.74,264.13,213.74z"/>
	</g>
</g>
</svg>
