<?xml version="1.0" encoding="utf-8"?>
<!-- Generator: Adobe Illustrator 23.0.2, SVG Export Plug-In . SVG Version: 6.00 Build 0)  -->
<svg version="1.1" id="Layer_1" xmlns="http://www.w3.org/2000/svg" xmlns:xlink="http://www.w3.org/1999/xlink" x="0px" y="0px"
	 viewBox="0 0 517 109" style="enable-background:new 0 0 517 109;" xml:space="preserve">
<style type="text/css">
	.st0{fill:#3E1C75;}
	.st1{fill:url(#SVGID_1_);}
	.st2{fill:url(#SVGID_2_);}
	.st3{fill:url(#SVGID_3_);}
	.st4{fill:url(#SVGID_4_);}
	.st5{fill:url(#SVGID_5_);}
	.st6{fill:url(#SVGID_6_);}
</style>
<path class="st0" d="M343.18,89.05l-7.55,16.58l-36.96,1.83l-3.32-13.39l36.96,2.86l3.78-4.11L324.3,76.58l-21.86-1.37l-11.9-24.34
	l21.86-26.4l27.35,13.88l-4.47,9.28l-20.56-13L304.05,55.2l30.32,12.81L343.18,89.05z"/>
<path class="st0" d="M401.88,26.78l-9.72,79.19l-7.19,1.26l2.66-32.96l-25.23,0.92l-1.38,31.58l-6.98,2.3l-5.84-80.47l13.27-2.63
	l-0.46,36.42l26.55,1.71l0.8-38.13L401.88,26.78z"/>
<path class="st0" d="M456.24,44.06l-0.34,52.16l-33.18,12.81l-20.48-52.41l17.05-26.78l20.71-7.21L456.24,44.06z M449.14,50.05
	l-13.86-16.38l-20.47,19.22l9.5,39.35l23.57-0.23L449.14,50.05z"/>
<path class="st0" d="M517,42.48l-6.64,27.84l-34.1,15.81L475,105.36l-8.35,2.98l-5.84-83.05l48.29,1.14L517,42.48z M506.59,55.5
	l-4.58-21.4l-23.92,2.98v38.56L506.59,55.5z"/>
<g>
	<linearGradient id="SVGID_1_" gradientUnits="userSpaceOnUse" x1="134.3854" y1="100.3764" x2="160.4959" y2="99.756">
		<stop  offset="0" style="stop-color:#18003E"/>
		<stop  offset="1" style="stop-color:#1F142B"/>
	</linearGradient>
	<path class="st1" d="M139.84,93.84c-1.83,0-3.36,0.61-4.58,1.83c-1.22,1.22-1.83,2.75-1.83,4.58c0,1.83,0.61,3.36,1.83,4.58
		c1.22,1.22,2.75,1.83,4.58,1.83c1.83,0,3.36-0.61,4.58-1.83c1.22-1.22,1.83-2.75,1.83-4.58c0-1.83-0.61-3.36-1.83-4.58
		C143.2,94.45,141.67,93.84,139.84,93.84z"/>
	<linearGradient id="SVGID_2_" gradientUnits="userSpaceOnUse" x1="157.3946" y1="67.5108" x2="275.4081" y2="64.7068">
		<stop  offset="0" style="stop-color:#18003E"/>
		<stop  offset="1" style="stop-color:#1F142B"/>
	</linearGradient>
	<polygon class="st2" points="209.76,24.81 152.43,39.6 153.23,52.98 172,47.08 177.49,106.54 182.52,108.37 187.56,42.46 
		210.22,32.83 	"/>
	<linearGradient id="SVGID_3_" gradientUnits="userSpaceOnUse" x1="199.84" y1="100.3764" x2="225.9506" y2="99.756">
		<stop  offset="0" style="stop-color:#18003E"/>
		<stop  offset="1" style="stop-color:#1F142B"/>
	</linearGradient>
	<path class="st3" d="M205.3,93.84c-1.83,0-3.36,0.61-4.58,1.83c-1.22,1.22-1.83,2.75-1.83,4.58c0,1.83,0.61,3.36,1.83,4.58
		c1.22,1.22,2.75,1.83,4.58,1.83c1.83,0,3.36-0.61,4.58-1.83c1.22-1.22,1.83-2.75,1.83-4.58c0-1.83-0.61-3.36-1.83-4.58
		C208.65,94.45,207.13,93.84,205.3,93.84z"/>
	<linearGradient id="SVGID_4_" gradientUnits="userSpaceOnUse" x1="226.5622" y1="66.6757" x2="324.6727" y2="64.3445">
		<stop  offset="0" style="stop-color:#18003E"/>
		<stop  offset="1" style="stop-color:#1F142B"/>
	</linearGradient>
	<polygon class="st4" points="239.28,61 238.82,34.99 268.12,30.88 270.18,25.3 222,25.3 231.16,106.08 237.11,107.91 237.45,72.33 
		253.93,71.41 252.1,58.82 	"/>
	<linearGradient id="SVGID_5_" gradientUnits="userSpaceOnUse" x1="261.4471" y1="100.3764" x2="287.5576" y2="99.756">
		<stop  offset="0" style="stop-color:#18003E"/>
		<stop  offset="1" style="stop-color:#1F142B"/>
	</linearGradient>
	<path class="st5" d="M271.48,95.67c-1.22-1.22-2.75-1.83-4.58-1.83c-1.83,0-3.36,0.61-4.58,1.83c-1.22,1.22-1.83,2.75-1.83,4.58
		c0,1.83,0.61,3.36,1.83,4.58c1.22,1.22,2.75,1.83,4.58,1.83c1.83,0,3.36-0.61,4.58-1.83c1.22-1.22,1.83-2.75,1.83-4.58
		C273.31,98.42,272.7,96.89,271.48,95.67z"/>
	<linearGradient id="SVGID_6_" gradientUnits="userSpaceOnUse" x1="11.7185" y1="56.704" x2="334.3852" y2="49.0373">
		<stop  offset="0" style="stop-color:#18003E"/>
		<stop  offset="1" style="stop-color:#1F142B"/>
	</linearGradient>
	<path class="st6" d="M138.49,32.09l19.23-3.52L115.81,0.44l-14.92,72.54L89.88,39.92C92.81,32.08,91.1,22,91.1,22L89.8,8.14
		l-4.46,10.79c0,0-2.61-1.18-5.76-0.89c-3.14,0.29-5.5,1.94-5.5,1.94l-6.37-9.78l1.29,13.86c0,0-0.97,5.79,4.45,16.15l-0.36,1.07
		l-8.02,36.19L42.74,3.63L0.18,66.27l19.31-15.03l14.38,6.14l6.49,26.43l15.89,10.02l9.03,15.39l6.46-21.51
		c5.39-0.91,12.74,1.16,14.33,18.25c-1.22-13.08,6.02-17.52,10.85-19.12l12.25,19.32l5.62-13.75l12.44-14.89l-1.03-29.32
		L138.49,32.09z M78.31,29.87c-0.44,0.53-1.02,0.83-1.75,0.9c-0.73,0.07-1.36-0.12-1.89-0.56c-0.53-0.44-0.83-1.02-0.9-1.75
		c-0.07-0.73,0.12-1.36,0.56-1.89c0.44-0.53,1.02-0.83,1.75-0.9c0.73-0.07,1.36,0.12,1.89,0.56c0.53,0.44,0.83,1.02,0.9,1.75
		C78.93,28.71,78.75,29.34,78.31,29.87z M86.29,29.13c-0.44,0.53-1.02,0.83-1.75,0.9c-0.73,0.07-1.36-0.12-1.89-0.56
		c-0.53-0.44-0.83-1.02-0.9-1.75c-0.07-0.73,0.12-1.36,0.56-1.89c0.44-0.53,1.02-0.83,1.75-0.9c0.73-0.07,1.36,0.12,1.89,0.56
		c0.53,0.44,0.83,1.02,0.9,1.75C86.92,27.97,86.73,28.6,86.29,29.13z"/>
</g>
</svg>
