<?xml version="1.0" encoding="utf-8"?>
<!-- Generator: Adobe Illustrator 23.0.2, SVG Export Plug-In . SVG Version: 6.00 Build 0)  -->
<svg version="1.1" id="Capa_1" xmlns="http://www.w3.org/2000/svg" xmlns:xlink="http://www.w3.org/1999/xlink" x="0px" y="0px"
	 viewBox="0 0 448.48 448.48" style="enable-background:new 0 0 448.48 448.48;" xml:space="preserve">
<style type="text/css">
	.st0{fill:#765E9D;}
</style>
<g>
	<path class="st0" d="M259.82,118.59c-15.48,0-28.07,12.59-28.07,28.07s12.59,28.07,28.07,28.07s28.07-12.59,28.07-28.07
		S275.3,118.59,259.82,118.59z M259.82,159.74c-7.21,0-13.07-5.87-13.07-13.07s5.87-13.07,13.07-13.07
		c7.21,0,13.07,5.87,13.07,13.07S267.02,159.74,259.82,159.74z"/>
	<path class="st0" d="M188.66,118.59c-15.48,0-28.07,12.59-28.07,28.07s12.59,28.07,28.07,28.07s28.07-12.59,28.07-28.07
		S204.14,118.59,188.66,118.59z M188.66,159.74c-7.21,0-13.07-5.87-13.07-13.07s5.87-13.07,13.07-13.07s13.07,5.87,13.07,13.07
		S195.87,159.74,188.66,159.74z"/>
	<path class="st0" d="M440.98,52.92c-9.95,0-15.28,3.44-19.55,6.2c-3.54,2.29-5.89,3.8-11.42,3.8s-7.87-1.51-11.42-3.8
		c-4.28-2.76-9.6-6.2-19.55-6.2s-15.27,3.44-19.55,6.2c-3.54,2.29-5.88,3.8-11.41,3.8s-7.87-1.51-11.41-3.8
		c-4.28-2.76-9.6-6.2-19.55-6.2c-1.42,0-2.74,0.08-3.98,0.21c-17.32-31.28-50.67-52.51-88.89-52.51
		c-38.22,0-71.57,21.23-88.89,52.52c-1.25-0.13-2.57-0.21-4-0.21c-9.95,0-15.27,3.44-19.55,6.2c-3.54,2.29-5.88,3.8-11.41,3.8
		s-7.87-1.51-11.41-3.8c-4.28-2.76-9.6-6.2-19.55-6.2s-15.27,3.44-19.55,6.2c-3.54,2.29-5.88,3.8-11.41,3.8s-7.87-1.51-11.41-3.8
		c-4.28-2.76-9.6-6.2-19.55-6.2c-4.14,0-7.5,3.36-7.5,7.5s3.36,7.5,7.5,7.5c5.53,0,7.87,1.51,11.41,3.8c4.28,2.76,9.6,6.2,19.55,6.2
		s15.27-3.44,19.55-6.2c3.54-2.29,5.88-3.8,11.41-3.8s7.87,1.51,11.41,3.8c4.28,2.76,9.6,6.2,19.55,6.2s15.27-3.44,19.55-6.2
		c2.89-1.87,4.98-3.22,8.66-3.65c-3.81,10.66-5.89,22.13-5.89,34.08c0,19.21,5.36,41.23,15.1,61.98
		c9.72,20.72,14.65,42.29,14.65,64.13v60.89c0,6.43-4.97,11.9-11.07,12.2c-3.23,0.16-6.29-0.98-8.62-3.2
		c-2.34-2.23-3.63-5.22-3.63-8.44v-23.38c0-13.05-10.37-23.86-23.12-24.1c-6.38-0.13-12.41,2.27-16.96,6.74
		c-4.56,4.47-7.07,10.45-7.07,16.83v22.95c0,32.2,25.75,59,57.39,59.75c15.96,0.38,31.05-5.56,42.48-16.73
		c0.95-0.93,1.86-1.9,2.74-2.88v60.18c0,3.21-1.29,6.21-3.63,8.44c-2.34,2.23-5.4,3.36-8.63,3.21c-6.1-0.3-11.06-5.77-11.06-12.2
		v-10.58c0-6.37-2.51-12.34-7.06-16.81c-4.55-4.47-10.56-6.85-16.96-6.75c-12.76,0.22-23.13,11.03-23.13,24.1v10.6
		c0,15.95,6.3,30.89,17.74,42.06c11.09,10.83,25.62,16.75,41.05,16.75c0.48,0,0.95-0.01,1.43-0.02
		c21.21-0.51,39.75-12.72,49.69-30.4c2.76,4.97,6.25,9.58,10.45,13.68c11.09,10.83,25.62,16.75,41.05,16.75
		c0.48,0,0.95-0.01,1.43-0.02c31.65-0.76,57.39-27.56,57.39-59.76v-10.17c0-6.38-2.51-12.35-7.06-16.82s-10.59-6.84-16.94-6.74
		c-12.76,0.22-23.15,11.03-23.15,24.1v10.6c0,3.21-1.29,6.21-3.63,8.44c-2.34,2.23-5.41,3.36-8.63,3.2
		c-6.1-0.3-11.06-5.77-11.06-12.2v-60.1c10.5,11.96,25.62,19.68,42.39,20.08c0.48,0.01,0.96,0.02,1.43,0.02
		c15.43,0,29.96-5.92,41.05-16.75c11.44-11.17,17.74-26.11,17.74-42.06v-23.38c0-13.05-10.37-23.86-23.12-24.1
		c-6.38-0.12-12.41,2.27-16.96,6.74c-4.56,4.47-7.07,10.45-7.07,16.83v23.37c0,6.43-4.97,11.9-11.07,12.2
		c-3.23,0.16-6.29-0.98-8.62-3.2c-2.34-2.23-3.63-5.22-3.63-8.44v-61.44c0-21.84,4.93-43.42,14.64-64.13
		c9.74-20.76,15.1-42.77,15.1-61.98c0-11.95-2.08-23.42-5.89-34.08c3.67,0.44,5.75,1.78,8.64,3.65c4.28,2.76,9.6,6.2,19.55,6.2
		s15.27-3.44,19.55-6.2c3.54-2.29,5.88-3.8,11.41-3.8c5.53,0,7.87,1.51,11.42,3.8c4.28,2.76,9.6,6.2,19.55,6.2
		c9.95,0,15.28-3.44,19.55-6.2c3.54-2.29,5.88-3.8,11.42-3.8c4.14,0,7.5-3.36,7.5-7.5S445.12,52.92,440.98,52.92z M224.24,15.61
		c31.73,0,59.52,17.17,74.58,42.7c-0.43,0.27-0.85,0.54-1.26,0.81c-3.54,2.29-5.88,3.8-11.41,3.8s-7.87-1.51-11.41-3.8
		c-4.28-2.76-9.6-6.2-19.55-6.2s-15.27,3.44-19.55,6.2c-3.54,2.29-5.88,3.8-11.41,3.8c-5.53,0-7.87-1.51-11.41-3.8
		c-4.28-2.76-9.6-6.2-19.55-6.2c-9.95,0-15.27,3.44-19.55,6.2c-3.54,2.29-5.88,3.8-11.41,3.8c-5.53,0-7.87-1.51-11.41-3.8
		c-0.4-0.26-0.82-0.53-1.24-0.8C164.71,32.78,192.51,15.61,224.24,15.61z M297.1,157.76c-10.66,22.72-16.06,46.44-16.06,70.5v61.44
		c0,7.25,3.02,14.29,8.28,19.3c5.33,5.08,12.33,7.68,19.7,7.33c14.21-0.69,25.34-12.63,25.34-27.18v-23.37
		c0-2.32,0.91-4.49,2.57-6.12c1.66-1.63,3.84-2.51,6.17-2.45c4.63,0.09,8.4,4.17,8.4,9.11v23.38c0,11.88-4.7,23-13.22,31.33
		c-8.52,8.32-19.77,12.76-31.65,12.47c-23.57-0.56-42.74-20.64-42.74-44.76v-71.32c0-4.14-3.36-7.5-7.5-7.5s-7.5,3.36-7.5,7.5
		v171.09c0,14.55,11.13,26.48,25.33,27.18c7.38,0.36,14.37-2.24,19.71-7.32c5.27-5.01,8.28-12.05,8.28-19.3v-10.6
		c0-4.94,3.77-9.02,8.42-9.1c2.34-0.03,4.51,0.83,6.17,2.45c1.65,1.62,2.56,3.79,2.56,6.11v10.17c0,24.12-19.18,44.2-42.75,44.76
		c-11.89,0.29-23.13-4.15-31.64-12.47c-8.52-8.33-13.22-19.45-13.22-31.33l0-162.31c0-4.14-3.36-7.5-7.5-7.5s-7.5,3.36-7.5,7.5
		l0,161.38c-0.02,24.1-19.19,44.16-42.75,44.72c-11.88,0.27-23.13-4.15-31.64-12.47c-8.52-8.33-13.22-19.45-13.22-31.33v-10.6
		c0-4.94,3.77-9.02,8.4-9.1c2.33-0.03,4.52,0.83,6.18,2.46c1.65,1.62,2.56,3.79,2.56,6.11v10.58c0,14.55,11.13,26.49,25.33,27.18
		c7.37,0.37,14.37-2.24,19.71-7.32c5.26-5.01,8.28-12.05,8.28-19.3V217.42c0-4.14-3.36-7.5-7.5-7.5s-7.5,3.36-7.5,7.5v72.28
		c0,11.88-4.7,23-13.22,31.33c-8.52,8.32-19.76,12.77-31.65,12.47c-23.57-0.56-42.74-20.64-42.74-44.76v-22.95
		c0-2.32,0.91-4.49,2.57-6.12c1.66-1.63,3.85-2.5,6.17-2.45c4.63,0.09,8.4,4.17,8.4,9.11v23.38c0,7.25,3.02,14.29,8.28,19.3
		c5.33,5.08,12.33,7.68,19.7,7.33c14.21-0.69,25.34-12.63,25.34-27.18v-60.89c0-24.06-5.4-47.78-16.06-70.5
		c-8.82-18.8-13.68-38.55-13.68-55.61c0-10.61,1.92-20.78,5.43-30.18c4.21,2.72,9.51,5.95,19.17,5.95c9.95,0,15.27-3.44,19.55-6.2
		c3.54-2.29,5.88-3.8,11.41-3.8c5.53,0,7.87,1.51,11.41,3.8c4.28,2.76,9.6,6.2,19.55,6.2c9.95,0,15.27-3.44,19.55-6.2
		c3.54-2.29,5.88-3.8,11.41-3.8c5.53,0,7.87,1.51,11.41,3.8c4.28,2.76,9.6,6.2,19.55,6.2c9.67,0,14.97-3.25,19.19-5.97
		c3.51,9.4,5.44,19.58,5.44,30.19C310.77,119.2,305.92,138.95,297.1,157.76z"/>
</g>
</svg>
