<?xml version="1.0" encoding="utf-8"?>
<!-- Generator: Adobe Illustrator 23.0.2, SVG Export Plug-In . SVG Version: 6.00 Build 0)  -->
<svg version="1.1" id="Capa_1" xmlns="http://www.w3.org/2000/svg" xmlns:xlink="http://www.w3.org/1999/xlink" x="0px" y="0px"
	 viewBox="0 0 448.48 447.26" style="enable-background:new 0 0 448.48 447.26;" xml:space="preserve">
<style type="text/css">
	.st0{fill:#765E9D;}
</style>
<g>
	<path class="st0" d="M300.87,1.35H152.89c-14.06,0-28.35,5.3-38.85,15.41C103.34,27.06,97,40.57,97,54.68v188.35
		c0,14.11,6.34,28.62,17.04,38.92c10.5,10.11,24.79,16.41,38.85,16.41h147.98c28.89,0,51.13-25.37,51.13-55.33V54.68
		C352,24.72,329.76,1.35,300.87,1.35z M123,51.5l131.37,32.95L123,95.21V51.35V51.5z M123,121.38c0,0,0.32,0,0.36-0.01l22.33-1.8
		c-0.74,2.17-1.09,4.48-1.09,6.9c0,3.14,0.48,6.11,1.68,8.79L123,131.49V121.38z M184.15,116.48l94.39-7.63
		c-5.59,3.82-9.27,10.29-9.27,17.63c0,11.73,9.39,21.25,20.98,21.25c11.59,0,20.98-9.51,20.98-21.25c0-8.56-5.6-15.92-12.81-19.28
		l27.59-2.28v60.02l-145.6-24.01c3.48-3.79,5.92-8.86,5.92-14.45C186.33,122.87,185.72,119.46,184.15,116.48z M123,157.93
		l172.05,28.26L123,200.56V157.93z M300.87,27.35c14.51,0,25.13,11.76,25.13,27.33v21.13L140.27,29.67
		c3.74-1.76,8.42-2.31,12.62-2.31H300.87z M300.87,271.35H152.89c-15.39,0-29.89-13.55-29.89-28.33v-16.29l203-17.02v33.31
		C326,258.6,315.38,271.35,300.87,271.35z"/>
</g>
<g>
	<path class="st0" d="M438.38,445.89c-0.45,0-0.91-0.03-1.37-0.08c-6.31-0.75-10.82-6.46-10.07-12.77
		c1.38-11.66,0.14-73.35-2.8-83.04c-1.54-4.45-3.92-9.02-7.06-13.59c-5.6-8.15-10.26-12.92-16.63-17.04l-0.3-0.2
		c-11.94-8.28-25.04-12.34-37.51-15.42c-91.38-1.81-180.26-1.81-271.64,0.01c-25.39,4.59-45.45,16.96-56.56,34.89
		c-6.55,10.93-9.97,71.98-8.74,95.14c0.34,6.34-4.53,11.76-10.87,12.1c-6.36,0.35-11.76-4.53-12.1-10.87
		c-0.44-8.28-0.77-87.16,12.06-108.32l0.05-0.09c14.74-23.83,40.69-40.05,73.07-45.66l0.86-0.15l0.87-0.02
		c92.43-1.85,182.29-1.85,274.72,0l1.26,0.03l1.22,0.3c14.94,3.62,30.87,8.44,46.25,19.06c11.11,7.22,17.83,15.79,22.94,23.23
		c4.36,6.34,7.69,12.83,9.91,19.29l0.09,0.26c4.59,14.48,5.2,80.54,3.75,92.81C449.09,441.59,444.12,445.89,438.38,445.89z"/>
</g>
<g>
	<path class="st0" d="M438.96,431.92c-0.93,0-1.87-0.11-2.82-0.35L32.68,330.03c-6.16-1.55-9.9-7.8-8.35-13.96
		c1.55-6.16,7.8-9.9,13.96-8.35l403.47,101.54c6.16,1.55,9.9,7.8,8.35,13.96C448.79,428.44,444.11,431.92,438.96,431.92z"/>
</g>
<g>
	<path class="st0" d="M14.15,422.85c-5.16,0-9.84-3.49-11.15-8.72c-1.54-6.16,2.21-12.4,8.37-13.94l195.21-48.7
		c6.16-1.53,12.4,2.21,13.94,8.37c1.54,6.16-2.21,12.4-8.37,13.94L16.94,422.5C16.01,422.74,15.07,422.85,14.15,422.85z"/>
</g>
</svg>
