<?xml version="1.0" encoding="utf-8"?>
<!-- Generator: Adobe Illustrator 23.0.2, SVG Export Plug-In . SVG Version: 6.00 Build 0)  -->
<svg version="1.1" id="Capa_1" xmlns="http://www.w3.org/2000/svg" xmlns:xlink="http://www.w3.org/1999/xlink" x="0px" y="0px"
	 viewBox="0 0 448.48 447.26" style="enable-background:new 0 0 448.48 447.26;" xml:space="preserve">
<style type="text/css">
	.st0{fill:#765E9D;}
</style>
<g>
	<path class="st0" d="M155.74,189.54c4.28,1.43,9.28,2.85,14.27,2.85c15.7,0,29.26-9.28,35.68-24.26
		c2.85-6.42,2.85-12.13,0.71-17.13c-3.57-8.56-13.56-12.84-24.26-17.13l-5.71-2.14c-9.99-4.28-22.12-9.28-32.82-9.28
		c-13.56,0-18.55,7.85-20.69,12.84C114.35,156.01,136.47,181.69,155.74,189.54z M135.76,141.02c0.71-2.14,2.14-3.57,7.14-3.57
		c7.85,0,18.55,4.28,27.83,7.85l5.71,2.14c7.14,2.85,14.98,5.71,16.41,9.28c0.71,1.43,0,3.57-0.71,6.42
		c-3.57,9.28-12.13,14.98-22.12,14.98c-2.85,0-5.71-0.71-8.56-1.43C147.18,170.99,131.48,151.01,135.76,141.02z"/>
	<path class="st0" d="M279.18,192.4L279.18,192.4c4.99,0,9.28-0.71,14.27-2.85c19.27-7.85,41.39-33.54,32.82-54.23
		c-2.14-4.99-7.14-12.84-20.69-12.84c-10.7,0-22.83,4.99-32.82,9.28l-4.99,2.14c-11.42,4.28-20.69,7.85-24.26,17.13
		c-2.14,4.99-2.14,10.7,0.71,17.13C249.93,183.12,263.49,192.4,279.18,192.4z M256.35,156.72c1.43-3.57,9.28-6.42,16.41-9.28
		l5.71-2.85c8.56-3.57,19.98-7.85,27.83-7.85c4.99,0,6.42,2.14,7.14,3.57c4.28,10.7-11.42,29.97-24.97,35.68
		c-2.85,1.43-5.71,1.43-8.56,1.43l0,0c-9.99,0-18.55-5.71-22.12-14.98C256.35,160.29,255.64,158.15,256.35,156.72z"/>
	<path class="st0" d="M158.59,226.65c-2.14,2.85-2.14,7.85,1.43,9.99c6.42,4.99,12.84,8.56,19.27,12.13
		c-0.71,0.71-0.71,1.43-0.71,2.85v28.54c0,4.28,2.85,7.14,7.14,7.14s7.14-2.85,7.14-7.14v-26.4c10.7,3.57,21.41,4.99,32.82,4.99
		c10.7,0,21.41-1.43,31.4-4.99v26.4c0,4.28,2.85,7.14,7.14,7.14s7.14-2.85,7.14-7.14v-28.54c0-0.71,0-1.43-0.71-2.85
		c7.85-3.57,14.98-7.85,21.41-13.56c2.85-2.14,3.57-7.14,1.43-9.99s-7.14-3.57-9.99-1.43c-16.41,13.56-36.39,19.98-57.8,19.98
		c-20.69,0-40.67-6.42-57.08-19.27C165.73,223.08,160.74,223.79,158.59,226.65z"/>
	<path class="st0" d="M224.95,218.08c2.14,0,3.57-0.71,4.99-2.14c1.43-1.43,2.14-2.85,2.14-4.99s-0.71-3.57-2.14-4.99
		c-2.85-2.85-7.85-2.85-9.99,0c-1.43,1.43-2.14,2.85-2.14,4.99c0,2.14,0.71,3.57,2.14,4.99
		C221.39,217.37,222.81,218.08,224.95,218.08z"/>
	<path class="st0" d="M431.89,237.35h-62.08c4.28-8.56,7.85-17.84,10.7-27.12c0.71,0,1.43-0.71,1.43-0.71
		c2.14-2.14,48.52-44.95,46.38-82.06c-0.71-12.84-6.42-17.84-10.7-19.27c-11.42-4.28-26.4,6.42-35.68,14.98
		C363.38,53.25,299.88,1.88,224.95,1.88c-76.35,0-139.86,52.09-157.7,122.73c-9.28-8.56-25.69-21.41-37.82-17.13
		c-4.28,1.43-9.99,6.42-10.7,19.27c-2.85,37.1,43.53,80.63,45.67,82.06c1.43,1.43,2.85,1.43,4.28,2.14
		c2.85,9.28,6.42,17.84,10.7,26.4H18.02c-2.85,0-5.71,1.43-6.42,4.28s-0.71,5.71,1.43,7.85l201.94,194.8
		c1.43,1.43,2.85,2.14,4.99,2.14c1.43,0,3.57-0.71,4.99-2.14l212.64-194.8c2.14-2.14,2.85-4.99,2.14-7.85
		C437.59,239.49,434.74,237.35,431.89,237.35z M413.33,121.04c0,0,1.43,1.43,1.43,6.42c0.71,18.55-14.98,41.39-28.54,57.08
		c0.71-6.42,1.43-13.56,1.43-19.98c0-8.56-0.71-17.13-2.14-25.69C396.92,127.46,410.48,118.9,413.33,121.04z M224.95,15.44
		c68.5,0,125.59,46.38,142.71,109.17c-24.97-19.27-100.61-74.21-134.86-57.8c-5.71,2.85-9.99,7.14-12.84,12.84
		c-2.85-5.71-7.14-9.28-12.13-12.13c-31.4-14.27-98.47,37.1-127.01,60.65C97.23,63.96,155.03,15.44,224.95,15.44z M32.3,127.46
		c0-4.99,1.43-6.42,1.43-6.42c3.57-1.43,17.84,7.85,28.54,19.27c0.71,0.71,0.71,0.71,1.43,0.71c-1.43,7.85-1.43,15.7-1.43,23.55
		c0,7.85,0.71,15.7,1.43,23.55C49.42,172.42,30.87,147.44,32.3,127.46z M77.25,150.3c0,0,0.71,0,0.71-0.71
		c36.39-32.11,102.04-79.2,124.16-68.5c5.71,2.14,8.56,9.28,8.56,20.69c0,4.28,2.85,7.14,7.14,7.14h5.71c4.28,0,7.14-2.85,7.14-7.14
		c0-17.84,7.14-20.69,9.28-22.12c23.55-11.42,90.62,32.11,127.01,62.08c1.43,1.43,3.57,1.43,4.99,1.43
		c0.71,7.14,1.43,13.56,1.43,20.69c0,82.06-66.36,148.42-148.42,148.42S76.54,245.91,76.54,163.85
		C76.54,159.57,76.54,154.58,77.25,150.3z M219.96,429.3L35.86,251.62h49.95c0.71,0,0.71,0,1.43,0
		c29.26,45.67,79.92,75.64,137.72,75.64s108.46-29.97,137.72-75.64c0.71,0,1.43,0.71,2.14,0.71h49.24L219.96,429.3z"/>
</g>
</svg>
